<svg id="Capa_1" data-name="Capa 1" xmlns="http://www.w3.org/2000/svg" viewBox="0 0 398.1 127.76"><defs><style>.cls-1{fill:#f6f6f6;}</style></defs><title>Alga Studio_Logo</title><path class="cls-1" d="M54.72,30.52l15.34,51H62.5l-3.17-10.3H39.08l-3.25,10.3H28.34l15.57-51ZM49.6,38.3H49L41,64.24H57.45Z"/><path class="cls-1" d="M80.7,28.35V81.53H73.78V28.35Z"/><path class="cls-1" d="M91.52,96.24a15.8,15.8,0,0,1-6.27-9.16l7.43-2.23a11.17,11.17,0,0,0,3.89,5.69,11.15,11.15,0,0,0,14.19-1.15c1.95-2.09,2.88-5,2.88-8.58V76.49h-.72a13.74,13.74,0,0,1-11.38,5.77,15.41,15.41,0,0,1-8.65-2.45,16.1,16.1,0,0,1-6-6.71,21.84,21.84,0,0,1-2.17-9.87,22.89,22.89,0,0,1,2.17-10.16,16.74,16.74,0,0,1,6-6.92,15.41,15.41,0,0,1,8.65-2.45,13.89,13.89,0,0,1,11.6,6h.65V44.93h7.35V81a21.13,21.13,0,0,1-2.16,9.8,15.57,15.57,0,0,1-6.35,6.41,20.09,20.09,0,0,1-9.72,2.23A19.89,19.89,0,0,1,91.52,96.24Zm17.15-22.49A9.93,9.93,0,0,0,112.56,69a14.75,14.75,0,0,0,1.37-5.77c0-3-.43-5.33-1.37-6.92a12.15,12.15,0,0,0-3.89-4,10,10,0,0,0-5.62-1.59,9.82,9.82,0,0,0-5.55,1.59,11.15,11.15,0,0,0-3.89,4.47,14.82,14.82,0,0,0-1.44,6.48,13.4,13.4,0,0,0,1.44,6.2,10.35,10.35,0,0,0,3.89,4.32,9.82,9.82,0,0,0,5.55,1.59A10,10,0,0,0,108.67,73.75Z"/><path class="cls-1" d="M156.16,57.25V81.53h-7.5V77H148c-2.3,4-6,5.54-11.16,5.54-3.68,0-6.49-.93-8.72-2.88A9.59,9.59,0,0,1,124.81,72a10.44,10.44,0,0,1,4-8.36c2.52-2.16,6.41-3.53,11.45-4.18l8.36-1V57a6.78,6.78,0,0,0-2-5.11A7.81,7.81,0,0,0,141.1,50a7.89,7.89,0,0,0-5.33,1.73,5.78,5.78,0,0,0-1.88,4.76h-7.5a11.8,11.8,0,0,1,4.12-9.44c2.59-2.38,6.19-3.53,10.66-3.53s8.21,1.22,11,3.67A13.14,13.14,0,0,1,156.16,57.25Zm-7.5,9.94V64.31l-8.21,1c-2.81.36-4.9,1.08-6.2,2.16a5.17,5.17,0,0,0-2,4.11,4.41,4.41,0,0,0,1.66,3.6,7.39,7.39,0,0,0,4.83,1.37,9.8,9.8,0,0,0,7.13-2.67A8.66,8.66,0,0,0,148.66,67.19Z"/><path class="cls-1" d="M186,80.89a16.42,16.42,0,0,1-7.06-6.35,18.31,18.31,0,0,1-2.52-9.65h8.07a10,10,0,0,0,3.31,8C190,74.83,193,75.77,197,75.77c3.39,0,6-.72,7.79-2.09a6.92,6.92,0,0,0,2.73-5.84A6.35,6.35,0,0,0,206,63.37a9.42,9.42,0,0,0-4-2.3,63.71,63.71,0,0,0-6.49-1.44,64,64,0,0,1-9.29-2.23,14.7,14.7,0,0,1-6.49-4.4A12.56,12.56,0,0,1,177,44.5a14.91,14.91,0,0,1,2.24-8.22,14,14,0,0,1,6.34-5.48,26.08,26.08,0,0,1,20.1.15,15.8,15.8,0,0,1,6.71,6.12,18.58,18.58,0,0,1,2.3,9.3h-7.86a9.67,9.67,0,0,0-2.95-7.5c-1.94-1.8-4.68-2.66-8.21-2.66a12.26,12.26,0,0,0-7.57,2.09,6.71,6.71,0,0,0-2.74,5.62,5.55,5.55,0,0,0,1.59,4.25,9.38,9.38,0,0,0,4,2.31,66.89,66.89,0,0,0,6.56,1.44,61.6,61.6,0,0,1,9.37,2.23,14.64,14.64,0,0,1,6.34,4.47c1.73,2.09,2.59,4.9,2.59,8.57,0,5-1.65,8.87-5,11.68s-8.07,4.25-14,4.25A23.88,23.88,0,0,1,186,80.89Z"/><path class="cls-1" d="M226.44,79.59a12.37,12.37,0,0,1-2.81-8.51v-20h-5.11V44.93h5.26l1.58-11.82h5.84l-.07,11.82h8.21v6.12h-8.21V70.73a5.52,5.52,0,0,0,1.37,4A4.2,4.2,0,0,0,236,76.27a13.87,13.87,0,0,0,3.74-.57v6.12a15.42,15.42,0,0,1-3,.79,22.05,22.05,0,0,1-3,.22A9.06,9.06,0,0,1,226.44,79.59Z"/><path class="cls-1" d="M267.93,81.53v-4.9h-.65a14.06,14.06,0,0,1-4.47,4.54,10.36,10.36,0,0,1-5.69,1.59,12.45,12.45,0,0,1-7.06-2,13,13,0,0,1-4.76-5.62,18.22,18.22,0,0,1-1.73-8.07V44.93h7.57V66.47a10.12,10.12,0,0,0,2.09,6.63,7.06,7.06,0,0,0,5.69,2.53,8.88,8.88,0,0,0,7.78-4.76,10.48,10.48,0,0,0,1.23-5v-21h7.49v36.6Z"/><path class="cls-1" d="M287.1,80.31a16.74,16.74,0,0,1-6.05-6.92,21.87,21.87,0,0,1-2.24-10.16,21.87,21.87,0,0,1,2.24-10.16,16.94,16.94,0,0,1,6.05-7,15.25,15.25,0,0,1,8.5-2.52,13.54,13.54,0,0,1,6.7,1.58,13.1,13.1,0,0,1,4.76,4.54h.72V28.35h7.5V81.53h-7.5v-5h-.72a12.53,12.53,0,0,1-4.68,4.61,12.84,12.84,0,0,1-6.71,1.66A14.78,14.78,0,0,1,287.1,80.31ZM302.81,74a11,11,0,0,0,3.89-4.54,13.74,13.74,0,0,0,1.37-6.27,14.34,14.34,0,0,0-1.37-6.41,11.23,11.23,0,0,0-3.89-4.47,10.1,10.1,0,0,0-5.62-1.66,9.88,9.88,0,0,0-5.55,1.66,11.08,11.08,0,0,0-3.89,4.47,14.38,14.38,0,0,0-1.44,6.41,13.86,13.86,0,0,0,1.44,6.34,10.79,10.79,0,0,0,4,4.47,9.82,9.82,0,0,0,5.48,1.66A10.1,10.1,0,0,0,302.81,74Z"/><path class="cls-1" d="M321.76,35.56a4.33,4.33,0,0,1,0-6.05,3.88,3.88,0,0,1,2.95-1.16,4.16,4.16,0,0,1,3.17,1.16,4.08,4.08,0,0,1,1.16,3,4.08,4.08,0,0,1-1.16,3,4.24,4.24,0,0,1-3.17,1.23A4,4,0,0,1,321.76,35.56Zm6.91,9.37v36.6h-7.49V44.93Z"/><path class="cls-1" d="M341.8,80.38a16.67,16.67,0,0,1-6.49-6.92A22.31,22.31,0,0,1,333,63.23,22.31,22.31,0,0,1,335.31,53a16.85,16.85,0,0,1,6.49-7,18,18,0,0,1,9.58-2.45A18.32,18.32,0,0,1,360.89,46a17.55,17.55,0,0,1,6.56,7,22.31,22.31,0,0,1,2.31,10.23,22.31,22.31,0,0,1-2.31,10.23,17.36,17.36,0,0,1-6.56,6.92,19.82,19.82,0,0,1-19.09,0ZM357,74.11a10.64,10.64,0,0,0,3.89-4.47,14.14,14.14,0,0,0,1.37-6.41,14.65,14.65,0,0,0-1.37-6.48A11.08,11.08,0,0,0,357,52.28a10,10,0,0,0-5.62-1.59,9.82,9.82,0,0,0-5.55,1.59,11.15,11.15,0,0,0-3.89,4.47,14.68,14.68,0,0,0-1.44,6.48,14.16,14.16,0,0,0,1.44,6.41,10.71,10.71,0,0,0,3.89,4.47,9.82,9.82,0,0,0,5.55,1.59A10,10,0,0,0,357,74.11Z"/></svg>