<svg viewBox="0 0 398.1 127.76" xmlns="http://www.w3.org/2000/svg"><g fill="#f6f6f6"><path d="m54.72 30.52 15.34 51h-7.56l-3.17-10.3h-20.25l-3.25 10.3h-7.49l15.57-51zm-5.12 7.78h-.6l-8 25.94h16.45z"/><path d="m80.7 28.35v53.18h-6.92v-53.18z"/><path d="m91.52 96.24a15.8 15.8 0 0 1 -6.27-9.16l7.43-2.23a11.17 11.17 0 0 0 3.89 5.69 11.15 11.15 0 0 0 14.19-1.15c1.95-2.09 2.88-5 2.88-8.58v-4.32h-.72a13.74 13.74 0 0 1 -11.38 5.77 15.41 15.41 0 0 1 -8.65-2.45 16.1 16.1 0 0 1 -6-6.71 21.84 21.84 0 0 1 -2.17-9.87 22.89 22.89 0 0 1 2.17-10.16 16.74 16.74 0 0 1 6-6.92 15.41 15.41 0 0 1 8.65-2.45 13.89 13.89 0 0 1 11.6 6h.65v-4.77h7.35v36.07a21.13 21.13 0 0 1 -2.16 9.8 15.57 15.57 0 0 1 -6.35 6.41 20.09 20.09 0 0 1 -9.72 2.23 19.89 19.89 0 0 1 -11.39-3.2zm17.15-22.49a9.93 9.93 0 0 0 3.89-4.75 14.75 14.75 0 0 0 1.37-5.77c0-3-.43-5.33-1.37-6.92a12.15 12.15 0 0 0 -3.89-4 10 10 0 0 0 -5.62-1.59 9.82 9.82 0 0 0 -5.55 1.59 11.15 11.15 0 0 0 -3.89 4.47 14.82 14.82 0 0 0 -1.44 6.48 13.4 13.4 0 0 0 1.44 6.2 10.35 10.35 0 0 0 3.89 4.32 9.82 9.82 0 0 0 5.55 1.59 10 10 0 0 0 5.62-1.62z"/><path d="m156.16 57.25v24.28h-7.5v-4.53h-.66c-2.3 4-6 5.54-11.16 5.54-3.68 0-6.49-.93-8.72-2.88a9.59 9.59 0 0 1 -3.31-7.66 10.44 10.44 0 0 1 4-8.36c2.52-2.16 6.41-3.53 11.45-4.18l8.36-1v-1.46a6.78 6.78 0 0 0 -2-5.11 7.81 7.81 0 0 0 -5.52-1.89 7.89 7.89 0 0 0 -5.33 1.73 5.78 5.78 0 0 0 -1.88 4.76h-7.5a11.8 11.8 0 0 1 4.12-9.44c2.59-2.38 6.19-3.53 10.66-3.53s8.21 1.22 11 3.67a13.14 13.14 0 0 1 3.99 10.06zm-7.5 9.94v-2.88l-8.21 1c-2.81.36-4.9 1.08-6.2 2.16a5.17 5.17 0 0 0 -2 4.11 4.41 4.41 0 0 0 1.66 3.6 7.39 7.39 0 0 0 4.83 1.37 9.8 9.8 0 0 0 7.13-2.67 8.66 8.66 0 0 0 2.79-6.69z"/><path d="m186 80.89a16.42 16.42 0 0 1 -7.06-6.35 18.31 18.31 0 0 1 -2.52-9.65h8.07a10 10 0 0 0 3.31 8c2.2 1.94 5.2 2.88 9.2 2.88 3.39 0 6-.72 7.79-2.09a6.92 6.92 0 0 0 2.73-5.84 6.35 6.35 0 0 0 -1.52-4.47 9.42 9.42 0 0 0 -4-2.3 63.71 63.71 0 0 0 -6.49-1.44 64 64 0 0 1 -9.29-2.23 14.7 14.7 0 0 1 -6.49-4.4 12.56 12.56 0 0 1 -2.73-8.5 14.91 14.91 0 0 1 2.24-8.22 14 14 0 0 1 6.34-5.48 26.08 26.08 0 0 1 20.1.15 15.8 15.8 0 0 1 6.71 6.12 18.58 18.58 0 0 1 2.3 9.3h-7.86a9.67 9.67 0 0 0 -2.95-7.5c-1.94-1.8-4.68-2.66-8.21-2.66a12.26 12.26 0 0 0 -7.57 2.09 6.71 6.71 0 0 0 -2.74 5.62 5.55 5.55 0 0 0 1.59 4.25 9.38 9.38 0 0 0 4 2.31 66.89 66.89 0 0 0 6.56 1.44 61.6 61.6 0 0 1 9.37 2.23 14.64 14.64 0 0 1 6.34 4.47c1.73 2.09 2.59 4.9 2.59 8.57 0 5-1.65 8.87-5 11.68s-8.07 4.25-14 4.25a23.88 23.88 0 0 1 -10.81-2.23z"/><path d="m226.44 79.59a12.37 12.37 0 0 1 -2.81-8.51v-20h-5.11v-6.15h5.26l1.58-11.82h5.84l-.07 11.82h8.21v6.12h-8.21v19.68a5.52 5.52 0 0 0 1.37 4 4.2 4.2 0 0 0 3.5 1.54 13.87 13.87 0 0 0 3.74-.57v6.12a15.42 15.42 0 0 1 -3 .79 22.05 22.05 0 0 1 -3 .22 9.06 9.06 0 0 1 -7.3-3.24z"/><path d="m267.93 81.53v-4.9h-.65a14.06 14.06 0 0 1 -4.47 4.54 10.36 10.36 0 0 1 -5.69 1.59 12.45 12.45 0 0 1 -7.06-2 13 13 0 0 1 -4.76-5.62 18.22 18.22 0 0 1 -1.73-8.07v-22.14h7.57v21.54a10.12 10.12 0 0 0 2.09 6.63 7.06 7.06 0 0 0 5.69 2.53 8.88 8.88 0 0 0 7.78-4.76 10.48 10.48 0 0 0 1.23-5v-21h7.49v36.6z"/><path d="m287.1 80.31a16.74 16.74 0 0 1 -6.05-6.92 21.87 21.87 0 0 1 -2.24-10.16 21.87 21.87 0 0 1 2.24-10.16 16.94 16.94 0 0 1 6.05-7 15.25 15.25 0 0 1 8.5-2.52 13.54 13.54 0 0 1 6.7 1.58 13.1 13.1 0 0 1 4.76 4.54h.72v-21.32h7.5v53.18h-7.5v-5h-.72a12.53 12.53 0 0 1 -4.68 4.61 12.84 12.84 0 0 1 -6.71 1.66 14.78 14.78 0 0 1 -8.57-2.49zm15.71-6.31a11 11 0 0 0 3.89-4.54 13.74 13.74 0 0 0 1.37-6.27 14.34 14.34 0 0 0 -1.37-6.41 11.23 11.23 0 0 0 -3.89-4.47 10.1 10.1 0 0 0 -5.62-1.66 9.88 9.88 0 0 0 -5.55 1.66 11.08 11.08 0 0 0 -3.89 4.47 14.38 14.38 0 0 0 -1.44 6.41 13.86 13.86 0 0 0 1.44 6.34 10.79 10.79 0 0 0 4 4.47 9.82 9.82 0 0 0 5.48 1.66 10.1 10.1 0 0 0 5.58-1.66z"/><path d="m321.76 35.56a4.33 4.33 0 0 1 0-6.05 3.88 3.88 0 0 1 2.95-1.16 4.16 4.16 0 0 1 3.17 1.16 4.08 4.08 0 0 1 1.16 3 4.08 4.08 0 0 1 -1.16 3 4.24 4.24 0 0 1 -3.17 1.23 4 4 0 0 1 -2.95-1.18zm6.91 9.37v36.6h-7.49v-36.6z"/><path d="m341.8 80.38a16.67 16.67 0 0 1 -6.49-6.92 22.31 22.31 0 0 1 -2.31-10.23 22.31 22.31 0 0 1 2.31-10.23 16.85 16.85 0 0 1 6.49-7 18 18 0 0 1 9.58-2.45 18.32 18.32 0 0 1 9.51 2.45 17.55 17.55 0 0 1 6.56 7 22.31 22.31 0 0 1 2.31 10.23 22.31 22.31 0 0 1 -2.31 10.23 17.36 17.36 0 0 1 -6.56 6.92 19.82 19.82 0 0 1 -19.09 0zm15.2-6.27a10.64 10.64 0 0 0 3.89-4.47 14.14 14.14 0 0 0 1.37-6.41 14.65 14.65 0 0 0 -1.37-6.48 11.08 11.08 0 0 0 -3.89-4.47 10 10 0 0 0 -5.62-1.59 9.82 9.82 0 0 0 -5.55 1.59 11.15 11.15 0 0 0 -3.89 4.47 14.68 14.68 0 0 0 -1.44 6.48 14.16 14.16 0 0 0 1.44 6.41 10.71 10.71 0 0 0 3.89 4.47 9.82 9.82 0 0 0 5.55 1.59 10 10 0 0 0 5.62-1.59z"/></g></svg>