<svg height="500pt" preserveAspectRatio="xMidYMid meet" viewBox="0 0 500 500" width="500pt" xmlns="http://www.w3.org/2000/svg"><path d="m2402 3348c-5-7-74-188-152-403-78-214-209-574-291-798-82-225-149-418-149-428 0-18 6-20 71-17l72 3 87 238c49 132 92 243 97 248s159 8 363 7l354-3 85-235c47-130 90-241 94-248 5-8 35-12 83-12 67 0 74 2 74 20 0 17-532 1503-573 1603l-16 37h-94c-64 0-98-4-105-12zm252-583c80-221 146-406 146-413 0-9-75-12-310-12-170 0-310 2-310 4 0 7 300 819 307 829 3 5 9 5 13 0 5-4 74-188 154-408z" transform="matrix(.1 0 0 -.1 0 500)"/></svg>