<?xml version="1.0" standalone="no"?>
<!DOCTYPE svg PUBLIC "-//W3C//DTD SVG 20010904//EN"
 "http://www.w3.org/TR/2001/REC-SVG-20010904/DTD/svg10.dtd">
<svg version="1.0" xmlns="http://www.w3.org/2000/svg"
 width="500.000000pt" height="500.000000pt" viewBox="0 0 500.000000 500.000000"
 preserveAspectRatio="xMidYMid meet">
<metadata>
Created by potrace 1.16, written by Peter Selinger 2001-2019
</metadata>
<g transform="translate(0.000000,500.000000) scale(0.100000,-0.100000)"
fill="#000000" stroke="none">
<path d="M2402 3348 c-5 -7 -74 -188 -152 -403 -78 -214 -209 -574 -291 -798
-82 -225 -149 -418 -149 -428 0 -18 6 -20 71 -17 l72 3 87 238 c49 132 92 243
97 248 5 5 159 8 363 7 l354 -3 85 -235 c47 -130 90 -241 94 -248 5 -8 35 -12
83 -12 67 0 74 2 74 20 0 17 -532 1503 -573 1603 l-16 37 -94 0 c-64 0 -98 -4
-105 -12z m252 -583 c80 -221 146 -406 146 -413 0 -9 -75 -12 -310 -12 -170 0
-310 2 -310 4 0 7 300 819 307 829 3 5 9 5 13 0 5 -4 74 -188 154 -408z"/>
</g>
</svg>
